<svg width="146" height="57" viewBox="0 0 146 57" fill="none" xmlns="http://www.w3.org/2000/svg">
<path d="M51.4617 42.57C51.5458 42.5719 51.6297 42.5636 51.7117 42.5451C51.7683 42.5323 51.8219 42.5088 51.8698 42.476C51.9065 42.4514 51.9353 42.4168 51.9528 42.3762C51.9685 42.3336 51.9763 42.2885 51.9758 42.2431C51.9753 42.191 51.9615 42.14 51.9358 42.0947C51.9101 42.0494 51.8732 42.0112 51.8287 41.9841C51.6711 41.8876 51.5012 41.8127 51.3237 41.7612C51.2197 41.7245 51.1158 41.6825 51.0118 41.6352C50.9103 41.5894 50.8159 41.5292 50.7318 41.4563C50.6489 41.3826 50.581 41.2934 50.5317 41.1941C50.4765 41.0773 50.4498 40.9491 50.4537 40.82C50.4513 40.6822 50.4796 40.5456 50.5367 40.4201C50.5911 40.3037 50.6711 40.2011 50.7708 40.1201C50.8797 40.0336 51.0043 39.9692 51.1378 39.9301C51.2959 39.8837 51.46 39.8612 51.6248 39.8632C51.9519 39.8562 52.2756 39.9318 52.5657 40.0832L52.3588 40.6482C52.2623 40.5993 52.162 40.5584 52.0588 40.5261C51.9313 40.4882 51.7987 40.4703 51.6658 40.4731C51.5383 40.4635 51.4106 40.4881 51.2958 40.5442C51.2591 40.5669 51.2292 40.5993 51.2093 40.6377C51.1894 40.676 51.1802 40.719 51.1827 40.7622C51.1812 40.8143 51.1959 40.8656 51.2247 40.9091C51.2561 40.9526 51.2959 40.9893 51.3417 41.0171C51.3969 41.0515 51.4551 41.0808 51.5157 41.1042C51.5824 41.1302 51.6551 41.157 51.7338 41.185C51.8991 41.2464 52.0431 41.3068 52.1658 41.3662C52.2783 41.419 52.3816 41.4895 52.4717 41.5752C52.5521 41.6539 52.6139 41.7496 52.6528 41.8552C52.6956 41.9806 52.7159 42.1126 52.7128 42.2451C52.7195 42.3768 52.6946 42.5082 52.6404 42.6284C52.5861 42.7486 52.504 42.8542 52.4008 42.9362C52.1228 43.1197 51.7919 43.2057 51.4598 43.1811C51.3323 43.1822 51.2049 43.174 51.0787 43.1562C50.9775 43.1419 50.8773 43.1212 50.7787 43.0942C50.702 43.0734 50.6269 43.0473 50.5538 43.0161C50.4998 42.9928 50.4471 42.9668 50.3958 42.9382L50.5958 42.3681C50.8612 42.5086 51.1586 42.5774 51.4587 42.5681L51.4617 42.57Z" fill="#B9B9B9"/>
<path d="M58.6977 42.5012V43.1162H56.5718V39.9343H57.2878V42.5012H58.6977Z" fill="#B9B9B9"/>
<path d="M65.4927 41.5232C65.4974 41.7684 65.4561 42.0123 65.3708 42.2422C65.2977 42.4368 65.1842 42.6137 65.0378 42.7613C64.8961 42.9015 64.7254 43.0089 64.5378 43.0762C64.3365 43.1475 64.1244 43.1831 63.9108 43.1812C63.7012 43.1827 63.4931 43.1471 63.2958 43.0762C63.107 43.0084 62.9348 42.901 62.7908 42.7613C62.6417 42.6145 62.5257 42.4375 62.4507 42.2422C62.364 42.0126 62.322 41.7686 62.3268 41.5232C62.3218 41.2775 62.3652 41.0331 62.4548 40.8042C62.5332 40.6085 62.6514 40.4311 62.8018 40.2832C62.9444 40.1437 63.1148 40.0356 63.3018 39.9661C63.494 39.8956 63.6971 39.8597 63.9018 39.8601C64.1114 39.8589 64.3196 39.8948 64.5168 39.9661C64.7059 40.0343 64.8782 40.1425 65.0218 40.2832C65.1704 40.4311 65.2862 40.6086 65.3618 40.8042C65.4508 41.0334 65.4953 41.2774 65.4927 41.5232ZM63.0638 41.5232C63.0618 41.6659 63.081 41.808 63.1208 41.9451C63.1547 42.0626 63.2107 42.1728 63.2858 42.2693C63.3563 42.3587 63.4466 42.4302 63.5497 42.4783C63.6625 42.527 63.784 42.552 63.9068 42.552C64.0296 42.552 64.151 42.527 64.2637 42.4783C64.3677 42.4306 64.4589 42.359 64.5299 42.2693C64.6049 42.1727 64.6608 42.0626 64.6948 41.9451C64.7344 41.808 64.7536 41.6659 64.7518 41.5232C64.7536 41.3795 64.7344 41.2363 64.6948 41.0982C64.661 40.98 64.605 40.8695 64.5299 40.7722C64.4588 40.6827 64.3676 40.6111 64.2637 40.5633C64.1519 40.5131 64.0304 40.4882 63.9078 40.4903C63.7842 40.488 63.6617 40.5139 63.5497 40.5662C63.4469 40.6156 63.3567 40.6877 63.2858 40.7771C63.2105 40.8743 63.1545 40.9851 63.1208 41.1033C63.0827 41.24 63.0648 41.3814 63.0678 41.5232H63.0638Z" fill="#B9B9B9"/>
<path d="M70.9477 40.4851C70.8139 40.4727 70.6791 40.4914 70.5537 40.5396C70.4283 40.5878 70.3157 40.6644 70.2247 40.7632C70.0653 40.9834 69.9865 41.2518 70.0017 41.5232C69.9999 41.6668 70.0185 41.8099 70.0567 41.9483C70.0895 42.0675 70.1456 42.1788 70.2218 42.2762C70.2953 42.3681 70.3894 42.4416 70.4967 42.4903C70.6185 42.5427 70.7502 42.5683 70.8828 42.5652C70.9618 42.5652 71.0307 42.5652 71.0827 42.5652C71.1328 42.563 71.1826 42.5569 71.2318 42.5472V41.4322H71.9477V43.0071C71.8131 43.0539 71.675 43.0902 71.5348 43.1153C71.3038 43.1569 71.0693 43.1759 70.8347 43.1722C70.6132 43.1751 70.393 43.138 70.1848 43.0623C69.9965 42.993 69.8257 42.8831 69.6848 42.7403C69.5425 42.5922 69.4336 42.4151 69.3657 42.2212C69.2874 41.9963 69.2492 41.7594 69.2528 41.5213C69.2482 41.2798 69.2902 41.0397 69.3767 40.8142C69.4529 40.619 69.5687 40.4416 69.7168 40.2933C69.8609 40.1506 70.0337 40.0402 70.2237 39.9693C70.4227 39.8952 70.6334 39.8578 70.8457 39.8592C71.0889 39.8579 71.331 39.8917 71.5647 39.9593C71.6387 39.9801 71.711 40.0067 71.7807 40.0391C71.8367 40.0661 71.8807 40.0883 71.9017 40.1033L71.6947 40.6773C71.587 40.6215 71.4742 40.5763 71.3578 40.5423C71.2245 40.5036 71.0864 40.4843 70.9477 40.4851Z" fill="#B9B9B9"/>
<path d="M78.0588 43.1171C78.0238 43.0061 77.9848 42.8921 77.9448 42.7761L77.8228 42.4282H76.5798L76.4588 42.7773C76.4188 42.894 76.3811 43.0071 76.3458 43.1171H75.6017C75.7211 42.7738 75.8348 42.4569 75.9428 42.1662C76.0508 41.8755 76.156 41.6015 76.2587 41.3442C76.3614 41.0869 76.4614 40.8426 76.5588 40.6113C76.6561 40.3799 76.7598 40.1543 76.8698 39.9343H77.5488C77.6534 40.1549 77.7564 40.3806 77.8577 40.6113C77.959 40.8419 78.0614 41.0862 78.1647 41.3442C78.2681 41.6009 78.3734 41.8749 78.4808 42.1662C78.5881 42.4575 78.7021 42.7745 78.8228 43.1171H78.0588ZM77.1988 40.6562C77.1828 40.7029 77.1594 40.7655 77.1287 40.8442L77.0237 41.1201C76.9844 41.2247 76.9404 41.3394 76.8918 41.4641C76.8431 41.5887 76.7937 41.7204 76.7437 41.8591H77.6537C77.6051 41.7211 77.5578 41.5878 77.5118 41.4592C77.4658 41.3305 77.4224 41.2155 77.3818 41.1142L77.2737 40.8391C77.2417 40.7611 77.2177 40.7012 77.2007 40.6562H77.1988Z" fill="#B9B9B9"/>
<path d="M84.6708 43.1171C84.4661 42.7525 84.2441 42.3929 84.0048 42.0383C83.7702 41.689 83.5157 41.3533 83.2427 41.0332V43.1181H82.5358V39.9362H83.1188C83.2195 40.0376 83.3311 40.1616 83.4538 40.3083C83.5764 40.455 83.7011 40.6119 83.8278 40.7792C83.9545 40.9459 84.0808 41.119 84.2068 41.2983C84.3328 41.4776 84.4507 41.6498 84.5607 41.8151V39.9372H85.2727V43.1191L84.6708 43.1171Z" fill="#B9B9B9"/>
<path d="M91.9707 40.4851C91.8369 40.4727 91.7022 40.4914 91.5768 40.5396C91.4514 40.5878 91.3388 40.6644 91.2478 40.7632C91.0884 40.9834 91.0096 41.2518 91.0248 41.5232C91.0231 41.6668 91.0415 41.8099 91.0797 41.9483C91.1128 42.0675 91.1693 42.1788 91.2457 42.2762C91.3193 42.3681 91.4135 42.4415 91.5207 42.4903C91.6422 42.5427 91.7735 42.5682 91.9057 42.5652C91.9857 42.5652 92.0537 42.5652 92.1057 42.5652C92.1557 42.5629 92.2056 42.5569 92.2547 42.5472V41.4322H92.9707V43.0071C92.8361 43.054 92.698 43.0902 92.5577 43.1153C92.3268 43.1569 92.0924 43.1759 91.8578 43.1722C91.6362 43.1752 91.416 43.138 91.2077 43.0623C91.0194 42.9931 90.8487 42.8831 90.7077 42.7403C90.5656 42.592 90.4568 42.415 90.3888 42.2212C90.3108 41.9962 90.2729 41.7594 90.2767 41.5213C90.2722 41.2798 90.3143 41.0397 90.4007 40.8142C90.477 40.619 90.5927 40.4416 90.7407 40.2932C90.8849 40.1506 91.0578 40.0402 91.2478 39.9693C91.4467 39.8952 91.6574 39.8578 91.8697 39.8592C92.1129 39.8579 92.3551 39.8916 92.5887 39.9593C92.6628 39.98 92.735 40.0066 92.8047 40.0391C92.8617 40.0661 92.9047 40.0883 92.9267 40.1033L92.7197 40.6773C92.6116 40.6215 92.4984 40.5763 92.3817 40.5423C92.2482 40.5035 92.1097 40.4842 91.9707 40.4851Z" fill="#B9B9B9"/>
<path d="M99.9777 41.5232C99.9825 41.7684 99.9411 42.0123 99.8558 42.2422C99.7826 42.4368 99.6692 42.6137 99.5228 42.7613C99.3811 42.9015 99.2104 43.0089 99.0228 43.0762C98.8215 43.1476 98.6094 43.1831 98.3958 43.1812C98.1862 43.1826 97.9781 43.1471 97.7808 43.0762C97.5921 43.0082 97.4199 42.9009 97.2758 42.7613C97.1268 42.6145 97.0108 42.4375 96.9357 42.2422C96.849 42.0126 96.807 41.7686 96.8118 41.5232C96.8067 41.2775 96.8501 41.0331 96.9398 40.8042C97.0183 40.6085 97.1365 40.4311 97.2868 40.2832C97.431 40.1432 97.6031 40.035 97.7918 39.9661C97.984 39.8956 98.1871 39.8597 98.3918 39.8601C98.6014 39.8589 98.8096 39.8948 99.0068 39.9661C99.1959 40.0343 99.3682 40.1425 99.5118 40.2832C99.6605 40.431 99.7763 40.6086 99.8518 40.8042C99.9392 41.0337 99.982 41.2777 99.9777 41.5232ZM97.5488 41.5232C97.5469 41.6659 97.5661 41.808 97.6058 41.9451C97.6397 42.0626 97.6957 42.1728 97.7708 42.2693C97.8413 42.3586 97.9316 42.4302 98.0347 42.4783C98.1475 42.527 98.269 42.552 98.3918 42.552C98.5146 42.552 98.6361 42.527 98.7489 42.4783C98.8527 42.4306 98.9439 42.359 99.0148 42.2693C99.09 42.1728 99.1459 42.0626 99.1798 41.9451C99.2195 41.808 99.2388 41.6659 99.2368 41.5232C99.2387 41.3795 99.2195 41.2363 99.1798 41.0982C99.146 40.98 99.0901 40.8694 99.0148 40.7722C98.9438 40.6827 98.8527 40.6111 98.7489 40.5633C98.637 40.5131 98.5154 40.4881 98.3928 40.4903C98.2692 40.4881 98.1468 40.514 98.0347 40.5662C97.9319 40.6156 97.8417 40.6877 97.7708 40.7771C97.6955 40.8743 97.6395 40.9851 97.6058 41.1033C97.5664 41.2398 97.5472 41.3812 97.5488 41.5232Z" fill="#B9B9B9"/>
<path d="M103.881 43.1171V39.9352H106.03V40.5351H104.598V41.1601H105.87V41.7473H104.598V42.5141H106.136V43.1142L103.881 43.1171Z" fill="#B9B9B9"/>
<path d="M110.836 42.57C110.92 42.5719 111.004 42.5636 111.086 42.5451C111.143 42.5325 111.197 42.509 111.245 42.476C111.281 42.4514 111.31 42.4168 111.327 42.3762C111.343 42.3337 111.35 42.2885 111.35 42.2431C111.349 42.191 111.335 42.14 111.31 42.0947C111.284 42.0494 111.247 42.0112 111.203 41.9841C111.045 41.8876 110.875 41.8127 110.698 41.7612C110.594 41.7245 110.49 41.6826 110.386 41.6352C110.284 41.5895 110.19 41.5292 110.106 41.4563C110.023 41.3826 109.955 41.2934 109.906 41.1941C109.851 41.0773 109.824 40.9491 109.828 40.82C109.825 40.6822 109.854 40.5456 109.911 40.4201C109.965 40.3037 110.045 40.2011 110.145 40.1201C110.254 40.0335 110.379 39.969 110.513 39.9301C110.67 39.8837 110.834 39.8613 110.999 39.8632C111.326 39.8562 111.65 39.9318 111.94 40.0832L111.733 40.6482C111.636 40.5993 111.536 40.5585 111.433 40.5261C111.305 40.4882 111.173 40.4703 111.04 40.4731C110.912 40.4637 110.785 40.4882 110.67 40.5442C110.633 40.5672 110.604 40.5996 110.584 40.6379C110.564 40.6762 110.555 40.7191 110.558 40.7622C110.556 40.8142 110.57 40.8655 110.599 40.9091C110.63 40.9526 110.67 40.9893 110.716 41.0171C110.771 41.0515 110.829 41.0808 110.89 41.1042C110.956 41.1302 111.029 41.157 111.109 41.185C111.274 41.2464 111.418 41.3068 111.541 41.3662C111.653 41.4191 111.756 41.4896 111.846 41.5752C111.926 41.6539 111.988 41.7496 112.027 41.8552C112.07 41.9806 112.09 42.1126 112.087 42.2451C112.093 42.3768 112.069 42.5082 112.014 42.6284C111.96 42.7486 111.878 42.8542 111.775 42.9362C111.497 43.1196 111.166 43.2057 110.834 43.1811C110.706 43.1822 110.579 43.174 110.453 43.1562C110.352 43.1419 110.251 43.1211 110.153 43.0942C110.019 43.058 109.891 43.0056 109.77 42.9382L109.97 42.3681C110.081 42.4271 110.199 42.4739 110.321 42.508C110.489 42.5532 110.662 42.5741 110.836 42.57Z" fill="#B9B9B9"/>
<path d="M118.967 39.9352H119.684V43.1171H118.967V41.7673H117.767V43.1171H117.051V39.9352H117.767V41.1523H118.967V39.9352Z" fill="#B9B9B9"/>
<path d="M123.72 43.1171V39.9352H125.869V40.5351H124.436V41.1601H125.708V41.7473H124.436V42.5141H125.975V43.1142L123.72 43.1171Z" fill="#B9B9B9"/>
<path d="M130.743 39.898C131.126 39.874 131.509 39.9628 131.843 40.1532C131.97 40.2406 132.072 40.3595 132.139 40.4984C132.205 40.6373 132.235 40.7914 132.224 40.9451C132.232 41.1383 132.178 41.329 132.07 41.4891C131.955 41.6373 131.802 41.751 131.627 41.8172C131.691 41.8972 131.759 41.9882 131.827 42.0902C131.895 42.1922 131.967 42.3002 132.036 42.4112C132.105 42.5222 132.172 42.6391 132.236 42.7601C132.3 42.8811 132.36 43 132.415 43.116H131.615L131.437 42.7992C131.377 42.6922 131.316 42.5881 131.253 42.4871C131.19 42.3861 131.128 42.287 131.066 42.2C131.004 42.113 130.943 42.0282 130.881 41.9542H130.527V43.116H129.811V39.9801C129.971 39.9492 130.132 39.9278 130.295 39.9161C130.463 39.9041 130.612 39.898 130.743 39.898ZM130.785 40.5091C130.733 40.5091 130.685 40.5091 130.645 40.5091L130.528 40.5181V41.3812H130.728C130.926 41.3954 131.124 41.3609 131.306 41.2811C131.364 41.2458 131.412 41.1949 131.442 41.1341C131.473 41.0733 131.487 41.0051 131.481 40.9371C131.486 40.8705 131.472 40.8037 131.441 40.7447C131.41 40.6857 131.362 40.6369 131.304 40.6041C131.141 40.5302 130.963 40.4982 130.785 40.5091Z" fill="#B9B9B9"/>
<path d="M136.18 43.1171V39.9352H138.329V40.5351H136.896V41.1601H138.168V41.7473H136.896V42.5141H138.434V43.1142L136.18 43.1171Z" fill="#B9B9B9"/>
<path d="M43.6606 34.2432V24.3512H50.2856V26.2212H45.8856V28.2912H49.7976V30.1613H45.8856V34.2442L43.6606 34.2432Z" fill="#B9B9B9"/>
<path d="M54.7546 24.2353C55.9448 24.1618 57.1305 24.4371 58.1667 25.0272C58.5615 25.2991 58.8784 25.6694 59.0862 26.1013C59.2941 26.5333 59.3856 27.0121 59.3517 27.4903C59.3792 28.0911 59.2115 28.6847 58.8736 29.1823C58.5176 29.6435 58.0406 29.9969 57.4956 30.2033C57.6956 30.4506 57.905 30.7336 58.1236 31.0523C58.3423 31.3709 58.559 31.7043 58.7737 32.0523C58.9877 32.3996 59.1946 32.7612 59.3946 33.1372C59.5946 33.5132 59.7803 33.8823 59.9516 34.2443H57.4616L56.9096 33.2593C56.723 32.926 56.532 32.6022 56.3366 32.2882C56.1413 31.9742 55.948 31.6769 55.7566 31.3963C55.5653 31.1156 55.3743 30.8609 55.1836 30.6322H54.0837V34.2443H51.8567V24.4922C52.3542 24.3955 52.8571 24.3287 53.3626 24.2923C53.8813 24.2543 54.3453 24.2353 54.7546 24.2353ZM54.8827 26.1353C54.7207 26.1353 54.5753 26.1399 54.4466 26.1492L54.0826 26.1782V28.8603H54.7106C55.3272 28.9035 55.9451 28.7958 56.5107 28.5463C56.692 28.4362 56.8389 28.2774 56.9347 28.0882C57.0305 27.8989 57.0713 27.6866 57.0526 27.4752C57.0691 27.2683 57.026 27.0609 56.9286 26.8776C56.8311 26.6942 56.6834 26.5424 56.5027 26.4402C55.9959 26.2068 55.4396 26.1028 54.8827 26.1353Z" fill="#B9B9B9"/>
<path d="M61.3796 34.2432V24.3512H68.0616V26.2212H63.6066V28.1632H67.5616V29.9912H63.6066V32.3753H68.3896V34.2462L61.3796 34.2432Z" fill="#B9B9B9"/>
<path d="M70.0316 34.2432V24.3512H76.7136V26.2212H72.2587V28.1632H76.2136V29.9912H72.2587V32.3753H77.0416V34.2462L70.0316 34.2432Z" fill="#B9B9B9"/>
<path d="M87.3506 29.2892C87.367 30.0557 87.231 30.8178 86.9506 31.5313C86.7035 32.1422 86.3144 32.6855 85.8156 33.1162C85.2914 33.5532 84.6807 33.8742 84.0236 34.0583C83.2529 34.2767 82.4546 34.3824 81.6536 34.3722C81.2536 34.3722 80.7869 34.3556 80.2536 34.3223C79.7257 34.2898 79.2009 34.2206 78.6827 34.1153V24.4783C79.2135 24.3811 79.7498 24.3166 80.2886 24.2853C80.8453 24.252 81.3237 24.2353 81.7237 24.2353C82.5017 24.2266 83.2772 24.3228 84.0296 24.5213C84.6795 24.6914 85.2858 24.9982 85.8077 25.4213C86.3116 25.8432 86.7038 26.3827 86.9496 26.9922C87.2333 27.724 87.3696 28.5046 87.3506 29.2892ZM80.9117 32.4302C81.0163 32.4395 81.1377 32.4465 81.2757 32.4512C81.4137 32.4562 81.5756 32.4583 81.7686 32.4583C82.2171 32.4952 82.6685 32.4394 83.0946 32.2946C83.5207 32.1497 83.9125 31.9188 84.2456 31.6162C84.8117 30.9778 85.1019 30.1411 85.0527 29.2892C85.1155 28.8552 85.0753 28.4125 84.9352 27.997C84.7951 27.5814 84.5591 27.2047 84.2463 26.8974C83.9335 26.59 83.5528 26.3607 83.1348 26.2279C82.7169 26.0952 82.2734 26.0627 81.8406 26.1332C81.688 26.1332 81.531 26.1356 81.3697 26.1403C81.2168 26.1443 81.0642 26.1563 80.9126 26.1763L80.9117 32.4302Z" fill="#B9B9B9"/>
<path d="M98.6295 29.2882C98.6445 30.0503 98.5163 30.8084 98.2516 31.5232C98.0237 32.1276 97.671 32.6772 97.2166 33.1362C96.7735 33.5728 96.2399 33.9067 95.6536 34.1142C95.0281 34.3367 94.3684 34.4477 93.7046 34.4422C93.0526 34.4465 92.405 34.3354 91.7916 34.1142C91.2049 33.9032 90.6697 33.5698 90.2216 33.1362C89.7586 32.6798 89.3982 32.1299 89.1646 31.5232C88.8952 30.8095 88.7645 30.0509 88.7796 29.2882C88.7645 28.5245 88.9004 27.7652 89.1796 27.0542C89.4234 26.4457 89.7905 25.8941 90.2576 25.4342C90.7057 24.9989 91.2407 24.6633 91.8275 24.4492C92.4291 24.2294 93.0651 24.1183 93.7056 24.1212C94.3576 24.1171 95.0051 24.2282 95.6185 24.4492C96.2065 24.6611 96.742 24.997 97.1886 25.4342C97.6507 25.8941 98.0108 26.446 98.2456 27.0542C98.5147 27.7676 98.6449 28.5259 98.6295 29.2882ZM91.0765 29.2882C91.0707 29.7326 91.1306 30.1754 91.2545 30.6022C91.3604 30.9674 91.5348 31.3093 91.7686 31.6092C91.9879 31.8868 92.2691 32.1093 92.5896 32.2591C92.9403 32.4099 93.3179 32.4877 93.6996 32.4877C94.0813 32.4877 94.4589 32.4099 94.8096 32.2591C95.1329 32.1106 95.4166 31.888 95.6376 31.6092C95.8712 31.3092 96.0457 30.9674 96.1516 30.6022C96.2759 30.1754 96.3361 29.7326 96.3306 29.2882C96.3358 28.8415 96.2755 28.3964 96.1516 27.9671C96.0465 27.5995 95.872 27.2554 95.6376 26.9532C95.4165 26.6745 95.1328 26.4518 94.8096 26.3032C94.4618 26.1466 94.0839 26.0684 93.7025 26.0742C93.3181 26.067 92.9371 26.1477 92.5886 26.3102C92.2688 26.4643 91.988 26.6889 91.7676 26.9671C91.533 27.2692 91.3585 27.6134 91.2536 27.9812C91.1309 28.4058 91.0713 28.8462 91.0765 29.2882Z" fill="#B9B9B9"/>
<path d="M103.112 24.3512C103.284 24.6652 103.482 25.0532 103.706 25.5152C103.93 25.9772 104.163 26.4772 104.406 27.0152C104.649 27.5532 104.89 28.1029 105.129 28.6642L105.802 30.2492L106.475 28.6642C106.713 28.1029 106.954 27.5532 107.198 27.0152C107.441 26.4772 107.674 25.9772 107.898 25.5152C108.122 25.0532 108.32 24.6652 108.492 24.3512H110.52C110.614 25.0079 110.702 25.7433 110.784 26.5573C110.865 27.3713 110.936 28.2182 110.998 29.0982C111.06 29.9788 111.117 30.8616 111.169 31.7462C111.221 32.6309 111.266 33.4642 111.304 34.2462H109.134C109.105 33.2849 109.067 32.2379 109.02 31.1052C108.972 29.9726 108.901 28.8302 108.806 27.6782C108.634 28.0782 108.443 28.5209 108.233 29.0062C108.023 29.4916 107.815 29.9768 107.61 30.4622C107.404 30.9475 107.206 31.4116 107.016 31.8543C106.825 32.2969 106.663 32.6752 106.529 32.9892H104.973C104.839 32.6752 104.677 32.2969 104.486 31.8543C104.294 31.4116 104.096 30.9475 103.892 30.4622C103.686 29.9768 103.479 29.4916 103.269 29.0062C103.059 28.5209 102.868 28.0782 102.696 27.6782C102.6 28.8296 102.529 29.9719 102.482 31.1052C102.434 32.2386 102.396 33.2856 102.368 34.2462H100.198C100.236 33.4656 100.281 32.6322 100.334 31.7462C100.386 30.8602 100.443 29.9775 100.505 29.0982C100.567 28.2182 100.638 27.3713 100.719 26.5573C100.799 25.7433 100.887 25.0079 100.983 24.3512H103.112Z" fill="#B9B9B9"/>
<path d="M116.591 34.3721C116.048 34.3721 115.508 34.3555 114.97 34.3222C114.406 34.2852 113.845 34.2067 113.293 34.0872V24.4921C113.789 24.4013 114.29 24.3369 114.793 24.2991C115.335 24.2565 115.84 24.2352 116.306 24.2352C116.887 24.2315 117.467 24.277 118.041 24.3712C118.519 24.4444 118.98 24.6015 119.404 24.8351C119.771 25.0411 120.078 25.3389 120.296 25.6992C120.521 26.1019 120.632 26.5588 120.617 27.0202C120.617 27.4068 120.51 27.786 120.309 28.1159C120.107 28.4459 119.819 28.7138 119.475 28.8902C120.004 29.0515 120.46 29.3956 120.76 29.8611C120.992 30.2853 121.11 30.7626 121.103 31.2462C121.13 31.7011 121.04 32.1554 120.841 32.5655C120.642 32.9756 120.342 33.3277 119.968 33.5882C118.945 34.1789 117.769 34.4518 116.591 34.3721ZM115.463 28.2332H116.548C117.052 28.2697 117.557 28.1789 118.018 27.9692C118.163 27.8823 118.281 27.7569 118.359 27.6069C118.438 27.4568 118.473 27.288 118.461 27.1192C118.475 26.9496 118.439 26.7794 118.358 26.6298C118.277 26.4802 118.154 26.3577 118.004 26.2772C117.582 26.0921 117.122 26.0088 116.662 26.0341C116.471 26.0341 116.266 26.0365 116.048 26.0412C115.829 26.0459 115.634 26.0579 115.463 26.0772V28.2332ZM115.463 29.9332V32.4892C115.625 32.5085 115.801 32.5228 115.991 32.5322C116.181 32.5415 116.39 32.5462 116.619 32.5462C117.171 32.5677 117.721 32.4705 118.232 32.2612C118.431 32.1701 118.597 32.0196 118.707 31.8303C118.817 31.641 118.865 31.4222 118.846 31.2042C118.861 31.0092 118.821 30.8139 118.73 30.6408C118.639 30.4677 118.501 30.324 118.332 30.2261C117.874 30.006 117.368 29.9052 116.861 29.9332H115.463Z" fill="#B9B9B9"/>
<path d="M122.887 24.3512H125.114V34.2462H122.887V24.3512Z" fill="#B9B9B9"/>
<path d="M130.297 24.2352C131.487 24.1616 132.673 24.4368 133.71 25.0272C134.104 25.299 134.422 25.6693 134.629 26.1013C134.837 26.5333 134.929 27.012 134.895 27.4902C134.922 28.091 134.755 28.6847 134.417 29.1822C134.061 29.6434 133.583 29.9968 133.039 30.2032C133.239 30.4505 133.448 30.7335 133.667 31.0522C133.885 31.3709 134.102 31.7042 134.317 32.0522C134.531 32.3995 134.738 32.7611 134.938 33.1371C135.138 33.5131 135.323 33.8822 135.495 34.2442H133.005L132.453 33.2592C132.267 32.9259 132.076 32.6021 131.88 32.2881C131.684 31.9741 131.49 31.6768 131.299 31.3962C131.108 31.1155 130.917 30.8608 130.726 30.6321H129.626V34.2442H127.398V24.4921C127.895 24.3954 128.399 24.3286 128.905 24.2922C129.423 24.2542 129.887 24.2352 130.297 24.2352ZM130.426 26.1352C130.264 26.1352 130.119 26.1398 129.99 26.1491L129.626 26.1782V28.8602H130.254C130.87 28.9037 131.488 28.796 132.054 28.5462C132.235 28.4362 132.382 28.2776 132.478 28.0883C132.574 27.899 132.615 27.6866 132.597 27.4752C132.613 27.2682 132.57 27.0609 132.473 26.8775C132.375 26.6941 132.227 26.5423 132.047 26.4401C131.54 26.2066 130.983 26.1026 130.426 26.1352Z" fill="#B9B9B9"/>
<path d="M145.589 29.2892C145.605 30.0557 145.469 30.8178 145.189 31.5313C144.942 32.1422 144.553 32.6855 144.054 33.1162C143.53 33.5533 142.919 33.8743 142.262 34.0583C141.491 34.2767 140.693 34.3825 139.892 34.3722C139.492 34.3722 139.025 34.3556 138.492 34.3223C137.964 34.2897 137.44 34.2205 136.922 34.1153V24.4783C137.453 24.3811 137.989 24.3166 138.528 24.2853C139.084 24.252 139.563 24.2353 139.963 24.2353C140.741 24.2266 141.516 24.3228 142.269 24.5213C142.919 24.6914 143.525 24.9982 144.047 25.4213C144.551 25.8432 144.943 26.3827 145.189 26.9922C145.472 27.724 145.608 28.5047 145.589 29.2892ZM139.15 32.4302C139.254 32.4395 139.375 32.4465 139.514 32.4512C139.651 32.4562 139.814 32.4583 140.006 32.4583C140.454 32.4952 140.905 32.4394 141.332 32.2946C141.758 32.1497 142.15 31.9188 142.483 31.6162C143.049 30.9779 143.339 30.1411 143.29 29.2892C143.352 28.8552 143.312 28.4125 143.172 27.997C143.032 27.5814 142.796 27.2047 142.483 26.8974C142.17 26.59 141.79 26.3607 141.372 26.2279C140.954 26.0952 140.51 26.0627 140.078 26.1332C139.925 26.1332 139.768 26.1356 139.607 26.1403C139.454 26.1442 139.301 26.1562 139.15 26.1763V32.4302Z" fill="#B9B9B9"/>
<path d="M46.0966 18.842L41.7767 16.266C41.1202 14.7558 40.1906 13.3797 39.0346 12.207L38.9267 12.086C36.6527 9.544 34.1267 8.35295 31.4167 8.54095C27.9967 8.77995 24.5677 11.241 21.4697 15.67C20.8177 15.404 20.1627 15.148 19.5097 14.896C14.2807 12.865 9.3416 10.947 6.4936 3.17999L5.32771 0L4.9206 3.36298C4.53665 6.2989 4.43961 9.26522 4.63069 12.22C3.49147 10.8716 2.56726 9.35539 1.8907 7.72498L0.697704 4.94098L0.334667 7.948C-1.78033 25.441 6.53468 29.214 13.8707 32.543L13.8836 32.549C13.142 35.9351 12.6341 39.3682 12.3636 42.824C12.1786 44.59 11.9637 46.591 11.7037 48.446C11.3507 48.503 11.0037 48.555 10.6667 48.608C7.7767 49.051 5.68968 49.37 5.09968 50.777C4.61268 51.937 5.50663 53.177 5.79963 53.582C6.70863 54.843 8.04363 56.433 9.52363 56.433C9.7026 56.433 9.88082 56.4094 10.0537 56.363C11.6937 55.926 12.5236 53.642 13.1376 49.857C14.4904 49.6291 15.8267 49.312 17.1376 48.908C28.7876 45.208 31.0117 37.05 32.9747 29.85C34.3507 24.803 35.5586 20.376 39.8426 18.301C41.0746 17.831 46.0966 18.842 46.0966 18.842ZM9.63765 54.79C9.25365 54.89 8.38565 54.381 7.12165 52.629C6.49965 51.767 6.57961 51.458 6.60261 51.405C6.83961 50.84 9.10262 50.4939 10.9146 50.2159L11.4387 50.1349C11.0027 52.6369 10.4316 54.578 9.63765 54.79ZM1.6977 10.929C2.56675 12.3959 3.66104 13.7171 4.94062 14.844C6.35462 23.552 11.2096 27.306 15.6336 30.719C16.5936 31.46 17.5247 32.179 18.3907 32.925C17.1547 32.244 15.8446 31.649 14.5456 31.059C7.8126 28.005 0.863704 24.853 1.6977 10.929ZM16.6446 47.358C15.5765 47.6891 14.4895 47.9562 13.3896 48.158C13.5956 46.624 13.7837 44.898 13.9837 42.995C14.2458 39.7172 14.7133 36.4592 15.3836 33.24C19.9446 35.37 23.6147 37.653 23.5327 43.879C21.4602 45.4364 19.1281 46.6143 16.6446 47.358ZM25.1367 42.4789C24.7487 35.7009 20.7967 32.6489 16.6267 29.4319C11.0707 25.1459 5.33763 20.723 6.24763 6.651C9.45463 12.738 14.2577 14.603 18.9217 16.415C24.1297 18.438 29.0507 20.35 31.7597 28.124C31.6404 28.5546 31.5216 28.9879 31.4036 29.424C30.1396 34.0579 28.8476 38.788 25.1376 42.477L25.1367 42.4789ZM32.5097 25.607C30.683 21.3834 27.2654 18.0499 22.9976 16.329C25.7186 12.543 28.7257 10.364 31.5307 10.167C33.7107 10.011 35.7917 11.025 37.7137 13.174L37.8227 13.295C38.7293 14.2184 39.49 15.2745 40.0787 16.4269C35.6927 18.0879 33.8257 21.569 32.5097 25.605V25.607Z" fill="#B9B9B9"/>
</svg>
