<svg width="113" height="47" viewBox="0 0 113 47" fill="none" xmlns="http://www.w3.org/2000/svg">
<path d="M30.6804 11.403C30.0768 10.3865 29.3485 9.44955 28.5124 8.61395C27.2092 7.30353 25.659 6.26465 23.9516 5.55744C22.2442 4.85024 20.4134 4.48877 18.5654 4.49395C16.7171 4.48874 14.8862 4.8502 13.1786 5.55741C11.4711 6.26461 9.92071 7.3035 8.61736 8.61395C7.30717 9.91728 6.26843 11.4675 5.56124 13.1749C4.85405 14.8822 4.49246 16.7129 4.49737 18.5609C4.49229 20.409 4.8538 22.2397 5.561 23.9471C6.2682 25.6545 7.30704 27.2047 8.61736 28.5079C9.4531 29.3444 10.3904 30.0727 11.4074 30.6759C10.9424 28.0423 11.1198 25.3354 11.9244 22.785C12.7291 20.2346 14.1372 17.9159 16.0293 16.026C17.9195 14.1338 20.2383 12.7255 22.7889 11.9207C25.3394 11.1159 28.0465 10.9383 30.6804 11.403Z" fill="#E7E7E7"/>
<path d="M39.5703 39.571C41.7228 37.4186 43.4303 34.8632 44.5953 32.0508C45.7602 29.2384 46.3598 26.2241 46.3598 23.18C46.3598 20.1359 45.7602 17.1216 44.5953 14.3093C43.4303 11.4969 41.7228 8.9415 39.5703 6.78903C35.2232 2.44208 29.3274 0 23.1798 0C17.0322 0 11.1364 2.44208 6.78928 6.78903C9.91156 3.66681 14.1463 1.91277 18.5618 1.91277C22.9773 1.91277 27.212 3.66681 30.3343 6.78903C33.4565 9.91131 35.2105 14.146 35.2105 18.5615C35.2105 22.9771 33.4565 27.2117 30.3343 30.334C27.212 33.4562 22.9773 35.2103 18.5618 35.2103C14.1463 35.2103 9.91156 33.4562 6.78928 30.334C3.66706 27.2117 1.91302 22.9771 1.91302 18.5615C1.91302 14.146 3.66706 9.91131 6.78928 6.78903C4.63673 8.9415 2.92926 11.4969 1.76431 14.3093C0.599362 17.1216 -0.000244141 20.1359 -0.000244141 23.18C-0.000244141 26.2241 0.599362 29.2384 1.76431 32.0508C2.92926 34.8632 4.63673 37.4186 6.78928 39.571C11.1364 43.918 17.0322 46.3601 23.1798 46.3601C29.3274 46.3601 35.2232 43.918 39.5703 39.571Z" fill="#B9B9B9"/>
<path d="M66.2333 20.6191C65.8853 19.8871 65.3813 19.3231 64.7213 18.9271C64.0613 18.5191 63.2933 18.3151 62.4173 18.3151C61.5413 18.3151 60.7493 18.5191 60.0413 18.9271C59.3453 19.3231 58.7933 19.8991 58.3853 20.6551C57.9893 21.3991 57.7913 22.2631 57.7913 23.2471C57.7913 24.2311 57.9893 25.0951 58.3853 25.8391C58.7933 26.5831 59.3453 27.1591 60.0413 27.5671C60.7493 27.9631 61.5413 28.1611 62.4173 28.1611C63.6413 28.1611 64.6493 27.7951 65.4413 27.0631C66.2333 26.3311 66.6953 25.3411 66.8273 24.0931H61.8233V22.7611H68.5733V24.0211C68.4773 25.0531 68.1533 26.0011 67.6013 26.8651C67.0493 27.7171 66.3233 28.3951 65.4233 28.8991C64.5233 29.3911 63.5213 29.6371 62.4173 29.6371C61.2533 29.6371 60.1913 29.3671 59.2313 28.8271C58.2713 28.2751 57.5093 27.5131 56.9453 26.5411C56.3933 25.5691 56.1173 24.4711 56.1173 23.2471C56.1173 22.0231 56.3933 20.9251 56.9453 19.9531C57.5093 18.9691 58.2713 18.2071 59.2313 17.6671C60.1913 17.1151 61.2533 16.8391 62.4173 16.8391C63.7493 16.8391 64.9253 17.1691 65.9453 17.8291C66.9773 18.4891 67.7273 19.4191 68.1953 20.6191H66.2333ZM72.377 28.1971H76.769V29.5291H70.739V16.9831H72.377V28.1971ZM84.1966 29.6551C83.0326 29.6551 81.9706 29.3851 81.0106 28.8451C80.0506 28.2931 79.2886 27.5311 78.7246 26.5591C78.1726 25.5751 77.8966 24.4711 77.8966 23.2471C77.8966 22.0231 78.1726 20.9251 78.7246 19.9531C79.2886 18.9691 80.0506 18.2071 81.0106 17.6671C81.9706 17.1151 83.0326 16.8391 84.1966 16.8391C85.3726 16.8391 86.4406 17.1151 87.4006 17.6671C88.3606 18.2071 89.1166 18.9631 89.6686 19.9351C90.2206 20.9071 90.4966 22.0111 90.4966 23.2471C90.4966 24.4831 90.2206 25.5871 89.6686 26.5591C89.1166 27.5311 88.3606 28.2931 87.4006 28.8451C86.4406 29.3851 85.3726 29.6551 84.1966 29.6551ZM84.1966 28.2331C85.0726 28.2331 85.8586 28.0291 86.5546 27.6211C87.2626 27.2131 87.8146 26.6311 88.2106 25.8751C88.6186 25.1191 88.8226 24.2431 88.8226 23.2471C88.8226 22.2391 88.6186 21.3631 88.2106 20.6191C87.8146 19.8631 87.2686 19.2811 86.5726 18.8731C85.8766 18.4651 85.0846 18.2611 84.1966 18.2611C83.3086 18.2611 82.5166 18.4651 81.8206 18.8731C81.1246 19.2811 80.5726 19.8631 80.1646 20.6191C79.7686 21.3631 79.5706 22.2391 79.5706 23.2471C79.5706 24.2431 79.7686 25.1191 80.1646 25.8751C80.5726 26.6311 81.1246 27.2131 81.8206 27.6211C82.5286 28.0291 83.3206 28.2331 84.1966 28.2331ZM98.9409 23.0671C99.3969 23.1391 99.8109 23.3251 100.183 23.6251C100.567 23.9251 100.867 24.2971 101.083 24.7411C101.311 25.1851 101.425 25.6591 101.425 26.1631C101.425 26.7991 101.263 27.3751 100.939 27.8911C100.615 28.3951 100.141 28.7971 99.5169 29.0971C98.9049 29.3851 98.1789 29.5291 97.3389 29.5291H92.6589V16.9831H97.1589C98.0109 16.9831 98.7369 17.1271 99.3369 17.4151C99.9369 17.6911 100.387 18.0691 100.687 18.5491C100.987 19.0291 101.137 19.5691 101.137 20.1691C101.137 20.9131 100.933 21.5311 100.525 22.0231C100.129 22.5031 99.6009 22.8511 98.9409 23.0671ZM94.2969 22.4011H97.0509C97.8189 22.4011 98.4129 22.2211 98.8329 21.8611C99.2529 21.5011 99.4629 21.0031 99.4629 20.3671C99.4629 19.7311 99.2529 19.2331 98.8329 18.8731C98.4129 18.5131 97.8069 18.3331 97.0149 18.3331H94.2969V22.4011ZM97.1949 28.1791C98.0109 28.1791 98.6469 27.9871 99.1029 27.6031C99.5589 27.2191 99.7869 26.6851 99.7869 26.0011C99.7869 25.3051 99.5469 24.7591 99.0669 24.3631C98.5869 23.9551 97.9449 23.7511 97.1409 23.7511H94.2969V28.1791H97.1949ZM105.336 18.3151V22.5091H109.908V23.8591H105.336V28.1791H110.448V29.5291H103.698V16.9651H110.448V18.3151H105.336Z" fill="#B9B9B9"/>
<path d="M67.1673 39.505C66.8873 39.505 66.6353 39.457 66.4113 39.361C66.1873 39.261 66.0113 39.121 65.8833 38.941C65.7553 38.761 65.6913 38.551 65.6913 38.311H66.4233C66.4393 38.491 66.5093 38.639 66.6333 38.755C66.7613 38.871 66.9393 38.929 67.1673 38.929C67.4033 38.929 67.5873 38.873 67.7193 38.761C67.8513 38.645 67.9173 38.497 67.9173 38.317C67.9173 38.177 67.8753 38.063 67.7913 37.975C67.7113 37.887 67.6093 37.819 67.4853 37.771C67.3653 37.723 67.1973 37.671 66.9813 37.615C66.7093 37.543 66.4873 37.471 66.3153 37.399C66.1473 37.323 66.0033 37.207 65.8833 37.051C65.7633 36.895 65.7033 36.687 65.7033 36.427C65.7033 36.187 65.7633 35.977 65.8833 35.797C66.0033 35.617 66.1713 35.479 66.3873 35.383C66.6033 35.287 66.8533 35.239 67.1373 35.239C67.5413 35.239 67.8713 35.341 68.1273 35.545C68.3873 35.745 68.5313 36.021 68.5593 36.373H67.8033C67.7913 36.221 67.7193 36.091 67.5873 35.983C67.4553 35.875 67.2813 35.821 67.0653 35.821C66.8693 35.821 66.7093 35.871 66.5853 35.971C66.4613 36.071 66.3993 36.215 66.3993 36.403C66.3993 36.531 66.4373 36.637 66.5133 36.721C66.5933 36.801 66.6933 36.865 66.8133 36.913C66.9333 36.961 67.0973 37.013 67.3053 37.069C67.5813 37.145 67.8053 37.221 67.9773 37.297C68.1533 37.373 68.3013 37.491 68.4213 37.651C68.5453 37.807 68.6073 38.017 68.6073 38.281C68.6073 38.493 68.5493 38.693 68.4333 38.881C68.3213 39.069 68.1553 39.221 67.9353 39.337C67.7193 39.449 67.4633 39.505 67.1673 39.505ZM70.0984 38.911H71.5084V39.463H69.4144V35.293H70.0984V38.911ZM73.9824 39.505C73.5944 39.505 73.2364 39.415 72.9084 39.235C72.5844 39.051 72.3264 38.797 72.1344 38.473C71.9464 38.145 71.8524 37.777 71.8524 37.369C71.8524 36.961 71.9464 36.595 72.1344 36.271C72.3264 35.947 72.5844 35.695 72.9084 35.515C73.2364 35.331 73.5944 35.239 73.9824 35.239C74.3744 35.239 74.7324 35.331 75.0564 35.515C75.3844 35.695 75.6424 35.947 75.8304 36.271C76.0184 36.595 76.1124 36.961 76.1124 37.369C76.1124 37.777 76.0184 38.145 75.8304 38.473C75.6424 38.797 75.3844 39.051 75.0564 39.235C74.7324 39.415 74.3744 39.505 73.9824 39.505ZM73.9824 38.911C74.2584 38.911 74.5044 38.849 74.7204 38.725C74.9364 38.597 75.1044 38.417 75.2244 38.185C75.3484 37.949 75.4104 37.677 75.4104 37.369C75.4104 37.061 75.3484 36.791 75.2244 36.559C75.1044 36.327 74.9364 36.149 74.7204 36.025C74.5044 35.901 74.2584 35.839 73.9824 35.839C73.7064 35.839 73.4604 35.901 73.2444 36.025C73.0284 36.149 72.8584 36.327 72.7344 36.559C72.6144 36.791 72.5544 37.061 72.5544 37.369C72.5544 37.677 72.6144 37.949 72.7344 38.185C72.8584 38.417 73.0284 38.597 73.2444 38.725C73.4604 38.849 73.7064 38.911 73.9824 38.911ZM79.8034 36.493C79.6954 36.285 79.5454 36.129 79.3534 36.025C79.1614 35.917 78.9394 35.863 78.6874 35.863C78.4114 35.863 78.1654 35.925 77.9494 36.049C77.7334 36.173 77.5634 36.349 77.4394 36.577C77.3194 36.805 77.2594 37.069 77.2594 37.369C77.2594 37.669 77.3194 37.935 77.4394 38.167C77.5634 38.395 77.7334 38.571 77.9494 38.695C78.1654 38.819 78.4114 38.881 78.6874 38.881C79.0594 38.881 79.3614 38.777 79.5934 38.569C79.8254 38.361 79.9674 38.079 80.0194 37.723H78.4534V37.177H80.7514V37.711C80.7074 38.035 80.5914 38.333 80.4034 38.605C80.2194 38.877 79.9774 39.095 79.6774 39.259C79.3814 39.419 79.0514 39.499 78.6874 39.499C78.2954 39.499 77.9374 39.409 77.6134 39.229C77.2894 39.045 77.0314 38.791 76.8394 38.467C76.6514 38.143 76.5574 37.777 76.5574 37.369C76.5574 36.961 76.6514 36.595 76.8394 36.271C77.0314 35.947 77.2894 35.695 77.6134 35.515C77.9414 35.331 78.2994 35.239 78.6874 35.239C79.1314 35.239 79.5254 35.349 79.8694 35.569C80.2174 35.785 80.4694 36.093 80.6254 36.493H79.8034ZM83.9401 38.611H82.1941L81.8941 39.463H81.1801L82.6741 35.287H83.4661L84.9601 39.463H84.2401L83.9401 38.611ZM83.7481 38.053L83.0701 36.115L82.3861 38.053H83.7481ZM89.0357 39.463H88.3517L86.2937 36.349V39.463H85.6097V35.287H86.2937L88.3517 38.395V35.287H89.0357V39.463ZM94.8225 35.293V39.463H94.1385V37.639H92.1765V39.463H91.4925V35.293H92.1765V37.081H94.1385V35.293H94.8225ZM96.4069 35.845V37.069H97.8469V37.627H96.4069V38.905H98.0269V39.463H95.7229V35.287H98.0269V35.845H96.4069ZM101.035 39.463L100.075 37.795H99.5534V39.463H98.8694V35.293H100.309C100.629 35.293 100.899 35.349 101.119 35.461C101.343 35.573 101.509 35.723 101.617 35.911C101.729 36.099 101.785 36.309 101.785 36.541C101.785 36.813 101.705 37.061 101.545 37.285C101.389 37.505 101.147 37.655 100.819 37.735L101.851 39.463H101.035ZM99.5534 37.249H100.309C100.565 37.249 100.757 37.185 100.885 37.057C101.017 36.929 101.083 36.757 101.083 36.541C101.083 36.325 101.019 36.157 100.891 36.037C100.763 35.913 100.569 35.851 100.309 35.851H99.5534V37.249ZM103.344 35.845V37.069H104.784V37.627H103.344V38.905H104.964V39.463H102.66V35.287H104.964V35.845H103.344Z" fill="#B9B9B9"/>
</svg>
