<svg width="122" height="61" viewBox="0 0 122 61" fill="none" xmlns="http://www.w3.org/2000/svg">
<path d="M37.8633 18.5137C37.8638 18.5148 37.864 18.516 37.864 18.5172C37.864 18.5184 37.8638 18.5196 37.8633 18.5208C39.6226 23.6531 40.2604 29.1092 39.733 34.5141L39.6578 34.4442C33.9245 6.35775 9.43527 5.26554 8.41772 5.23113C30.2563 4.26343 37.6779 18.1634 37.8633 18.5137Z" fill="#EBEBEB"/>
<path d="M39.662 34.446C30.8529 10.8508 8.42188 5.23291 8.42188 5.23291C9.44042 5.26733 33.9296 6.35953 39.662 34.446Z" fill="#BBBBBB"/>
<path d="M41.3041 32.1897L41.3442 32.1289C59.9136 25.0139 57.9417 7.81912 57.8514 7.10549C57.8525 7.10294 57.8531 7.10017 57.8531 7.09738C57.8531 7.0946 57.8525 7.09184 57.8514 7.08929V7.0822L57.7512 7.01438C42.7307 9.97516 39.9427 20.6623 39.8745 20.9326C39.8745 20.9184 39.8745 20.9063 39.8745 20.8911C39.8996 20.6947 39.9256 20.5034 39.9537 20.3131C39.9738 20.1846 39.9948 20.055 40.0149 19.9285C40.0439 19.7736 40.072 19.6248 40.1031 19.4659L40.1602 19.1906C40.1813 19.0995 40.1993 19.0084 40.2204 18.9172C40.2414 18.8261 40.2635 18.732 40.2865 18.6409C40.3096 18.5498 40.3327 18.4577 40.3557 18.3686C40.3788 18.2795 40.4018 18.2026 40.4239 18.1176C40.4369 18.068 40.4499 18.0164 40.464 17.9708C40.49 17.8858 40.5141 17.8008 40.5392 17.7188C40.6063 17.5032 40.6735 17.2936 40.7467 17.0871C40.7758 17.0011 40.8048 16.9181 40.8359 16.8351C40.867 16.7521 40.8961 16.6691 40.9281 16.5871C40.9883 16.4231 41.0545 16.2601 41.1206 16.1002C41.1547 16.0213 41.1888 15.9423 41.2209 15.8603L41.275 15.7429L41.3271 15.6255C41.4073 15.4483 41.4875 15.2762 41.5717 15.1062L41.682 14.8835C41.7281 14.7924 41.7823 14.7023 41.8244 14.6112C41.9246 14.4341 42.0179 14.259 42.1171 14.0859C42.1672 13.9998 42.2174 13.9158 42.2685 13.8288C42.2946 13.7842 42.3226 13.7366 42.3507 13.6941L42.3667 13.6648C42.5462 13.3722 42.7357 13.0878 42.9271 12.8115C43.0154 12.6829 43.1056 12.5574 43.1978 12.4309C43.27 12.3357 43.3412 12.2385 43.4154 12.1444C43.4384 12.112 43.4655 12.0766 43.4905 12.0432C43.5808 11.9288 43.671 11.8144 43.7632 11.702C43.8535 11.5897 43.9467 11.4804 44.0399 11.37L44.062 11.3457C44.1622 11.2303 44.2625 11.119 44.3627 11.0077C44.4429 10.9186 44.5251 10.8295 44.6073 10.7425C44.641 10.7011 44.6772 10.6619 44.7156 10.625C44.7928 10.544 44.867 10.4651 44.9452 10.3861C44.9632 10.3659 44.9833 10.3467 45.0023 10.3295C45.1026 10.2282 45.2028 10.127 45.2961 10.0349C45.2961 10.0298 45.3061 10.0268 45.3081 10.0238C45.3913 9.94177 45.4775 9.86079 45.5637 9.77981C45.6169 9.7292 45.672 9.67858 45.7251 9.62999C45.8144 9.54395 45.9076 9.46198 46.0008 9.381C46.0941 9.30002 46.1943 9.20688 46.2936 9.12388C46.3928 9.04087 46.494 8.95383 46.5943 8.87184C46.6334 8.83944 46.6755 8.80603 46.7166 8.77061C46.7918 8.71088 46.867 8.64915 46.9432 8.58639C47.3442 8.27057 47.7452 7.96994 48.1522 7.6855L48.3788 7.53063C49.0274 7.08626 49.682 6.68238 50.3427 6.31595C50.4229 6.26939 50.5021 6.22585 50.5843 6.18131C50.854 6.03049 51.1256 5.88676 51.3953 5.7501L51.7121 5.58714C52.0342 5.42586 52.3547 5.27334 52.6735 5.1296C52.7738 5.08202 52.874 5.04053 52.9743 4.99599C53.0484 4.96057 53.1236 4.92918 53.1988 4.89477C53.2931 4.85124 53.3853 4.81278 53.4785 4.7733C53.6279 4.70852 53.7793 4.64879 53.9216 4.58907C54.0409 4.53947 54.1602 4.49392 54.2775 4.44533C54.3948 4.39675 54.5121 4.35322 54.6294 4.30767C54.7467 4.26212 54.86 4.22062 54.9732 4.17811C55.0865 4.1356 55.1998 4.09409 55.3131 4.05461L55.6469 3.93617C55.662 3.92909 55.681 3.92605 55.6961 3.91897C56.0129 3.81066 56.3146 3.71653 56.6093 3.61531C56.7096 3.5819 56.8098 3.55154 56.9101 3.52117C57.1246 3.45335 57.3342 3.39261 57.5367 3.33693L57.7773 3.26709C58.1442 3.16587 58.487 3.07578 58.7988 2.99683L58.9352 2.96544C59.0434 2.93811 59.1457 2.91483 59.2449 2.89155L59.4454 2.84398C59.6459 2.80011 59.8254 2.76165 59.9838 2.72858C60.0379 2.71745 60.084 2.70732 60.1362 2.69922C60.4259 2.64051 60.6294 2.60712 60.7377 2.58789C60.7667 2.71341 60.8239 2.96949 60.8981 3.343C60.9091 3.39767 60.9211 3.45536 60.9301 3.51306C61.0204 3.97767 61.1306 4.59514 61.2239 5.32901C61.2479 5.51223 61.272 5.70354 61.2961 5.90093C61.3071 6.00215 61.3181 6.10338 61.3301 6.2046C61.3512 6.40705 61.3723 6.61962 61.3933 6.83725C61.4735 7.70676 61.5306 8.67546 61.5437 9.71402C61.5437 9.84358 61.5437 9.97416 61.5437 10.1047C61.5437 10.371 61.5437 10.6372 61.5337 10.9084C61.5337 11.0441 61.5337 11.1797 61.5236 11.3184C61.5006 11.9561 61.4565 12.6131 61.3913 13.2811C61.3843 13.3824 61.3733 13.4836 61.3612 13.5777C61.3258 13.9151 61.2837 14.2559 61.2349 14.6001C61.2219 14.6952 61.2058 14.7873 61.1908 14.8825C61.1076 15.423 61.0063 15.9717 60.89 16.5183C60.8229 16.8169 60.7517 17.1124 60.6745 17.41C60.6013 17.6884 60.5231 17.9688 60.4409 18.2482C60.3587 18.5275 60.2685 18.8029 60.1733 19.0802C60.1472 19.1551 60.1221 19.231 60.0941 19.3039C59.4974 21.0168 58.6609 22.6346 57.6098 24.108C57.5096 24.2558 57.3963 24.4015 57.283 24.5483C57.1697 24.6951 57.0585 24.8388 56.9402 24.9815L56.7627 25.1931C56.6418 25.3362 56.5184 25.4772 56.3928 25.6162C56.3306 25.6861 56.2665 25.7559 56.2023 25.8187C56.1382 25.8814 56.088 25.9391 56.0299 26.0029L55.4875 26.5394C55.4264 26.5991 55.3632 26.6568 55.2991 26.7145C55.2349 26.7722 55.1718 26.8319 55.1086 26.8876C55.0454 26.9433 54.9813 27.003 54.9151 27.0587C54.7146 27.2307 54.5141 27.3988 54.3136 27.5648C54.1131 27.7308 53.8905 27.8917 53.671 28.0486C53.5868 28.1094 53.5066 28.1681 53.4224 28.2268C53.3562 28.2713 53.291 28.3169 53.2219 28.3614C53.1527 28.4059 53.0715 28.4626 52.9923 28.5142C52.9131 28.5659 52.8389 28.6155 52.7597 28.6641C52.6043 28.7653 52.4429 28.8665 52.2825 28.9576C52.2023 29.0042 52.1241 29.0528 52.0409 29.0963C48.7253 30.8984 45.0623 31.9537 41.3041 32.1897Z" fill="#BBBBBB"/>
<path d="M8.38872 5.23396L8.27143 5.35949C8.94813 25.9079 21.3872 32.8771 23.4033 33.8741L23.4694 33.8843C23.4824 33.8864 23.4952 33.8898 23.5075 33.8944H23.4484C23.5727 33.9541 23.6489 33.9885 23.6729 33.9956C23.6519 33.9956 23.6348 33.9855 23.6178 33.9814L23.31 33.8873C21.7662 33.8772 11.8073 34.3408 5.06442 47.0362L5.0995 47.1486C5.10335 47.1523 5.10825 47.1548 5.11354 47.1557C9.46897 48.9636 14.2618 49.4092 18.8709 48.4346C23.4801 47.46 27.6931 45.1101 30.9642 41.6896C18.5762 59.7438 0.311535 48.8086 -0.000244141 48.6204C0.0518862 48.5262 0.141106 48.3379 0.283462 48.0768C0.304515 48.0312 0.328581 47.9867 0.355649 47.9371C0.434847 47.7903 0.52507 47.6334 0.624318 47.4523C0.658404 47.3925 0.69349 47.3338 0.724567 47.2711C0.776698 47.181 0.824821 47.0899 0.886976 46.9917C0.911036 46.9502 0.935097 46.9117 0.956149 46.8702C1.12557 46.5908 1.30803 46.2882 1.51555 45.9592C1.55665 45.8894 1.60577 45.8195 1.64988 45.7466C1.76417 45.5685 1.88146 45.3843 2.00878 45.199L2.18823 44.9338C2.36767 44.6797 2.54712 44.4186 2.74462 44.1422C2.75578 44.129 2.76616 44.1152 2.77569 44.1007L2.98622 43.8143C3.0584 43.7131 3.13158 43.623 3.20376 43.5217C3.27595 43.4205 3.35213 43.3264 3.42833 43.2282C3.50452 43.13 3.58371 43.0257 3.66291 42.9245C3.74211 42.8233 3.8183 42.7221 3.90151 42.6208C4.00176 42.4994 4.10201 42.3739 4.20226 42.2473C4.26743 42.1674 4.33359 42.0904 4.40276 42.0135C4.45489 41.9508 4.50302 41.885 4.56216 41.8252C4.63134 41.7412 4.70051 41.6613 4.7757 41.5772C5.0036 41.3127 5.24186 41.0478 5.49048 40.7826C5.57369 40.6986 5.6569 40.6116 5.7391 40.5245C5.94662 40.3049 6.16417 40.0852 6.38472 39.8686C6.44988 39.8028 6.51605 39.74 6.58522 39.6773C7.12758 39.1509 7.70401 38.6347 8.31554 38.1397C8.38873 38.084 8.4579 38.0243 8.53008 37.9686C8.92006 37.6579 9.32406 37.3552 9.7391 37.0657C9.82231 37.01 9.90452 36.9574 9.98071 36.9017C10.0258 36.8734 10.0699 36.842 10.112 36.8147C10.2223 36.7408 10.3296 36.6709 10.4399 36.6021C10.5501 36.5333 10.6574 36.4624 10.7677 36.3997C10.8779 36.3369 10.9782 36.2671 11.0855 36.2073C11.1476 36.1689 11.2098 36.1304 11.2749 36.0919C11.3752 36.0322 11.4754 35.9765 11.5757 35.9178C11.5757 35.9178 11.5827 35.9178 11.5897 35.9107C11.707 35.845 11.8313 35.7781 11.9556 35.7154C11.978 35.7012 12.001 35.6884 12.0248 35.6769C12.1251 35.6212 12.2253 35.5757 12.3256 35.5231C12.3707 35.4988 12.4188 35.4745 12.4669 35.4532C12.5742 35.4006 12.6815 35.3449 12.7917 35.2963C12.9261 35.2336 13.0574 35.1708 13.1927 35.108C13.2037 35.1048 13.2142 35.1 13.2238 35.0939L13.6248 34.9269C13.7562 34.8712 13.8905 34.8155 14.0258 34.7629C14.0639 34.7487 14.105 34.7315 14.1431 34.7214C14.2574 34.6758 14.3677 34.6374 14.482 34.5959C14.6273 34.5432 14.7717 34.4946 14.9211 34.4461C15.2389 34.3448 15.5637 34.2436 15.8945 34.1565C15.9052 34.1559 15.9157 34.1535 15.9256 34.1495C15.9737 34.1353 16.0258 34.1211 16.077 34.111L16.3637 34.0371C16.5571 33.9916 16.7506 33.9501 16.9471 33.9116C17.0474 33.8944 17.1476 33.8731 17.2479 33.8519L17.4895 33.8134C17.6759 33.782 17.8624 33.7537 18.0519 33.7294C18.093 33.7223 18.1381 33.7193 18.1792 33.7152C18.2203 33.7112 18.2654 33.701 18.3065 33.698C18.3927 33.6909 18.4759 33.6808 18.5622 33.6697C18.7353 33.6521 18.908 33.6383 19.0805 33.6282C19.1667 33.6211 19.2529 33.614 19.3431 33.6109L19.6058 33.6008C19.8233 33.5907 20.0449 33.5867 20.2654 33.5867C20.3516 33.5867 20.4378 33.5867 20.5281 33.5867C20.5762 33.5867 20.6283 33.5867 20.6764 33.5937C20.7627 33.5937 20.8489 33.5937 20.9361 33.6008C21.0233 33.6079 21.1185 33.6079 21.2118 33.615C21.305 33.6221 21.4023 33.6251 21.4955 33.6322L21.7712 33.6535L22.0479 33.6818C22.2033 33.696 22.3587 33.7162 22.514 33.7304C22.6384 33.7517 22.7657 33.7689 22.894 33.7861C22.9561 33.7962 23.0183 33.8033 23.0845 33.8175L22.8218 33.7334C22.6494 33.6778 22.4729 33.618 22.3005 33.5593C22.09 33.4854 21.8825 33.4095 21.6759 33.3326L21.3 33.1858L20.9341 33.039L20.5612 32.8822C20.4409 32.8265 20.3165 32.7738 20.1952 32.7222C20.0739 32.6706 19.9747 32.621 19.8604 32.5694C19.7952 32.538 19.7291 32.5066 19.6669 32.4752L19.3281 32.3112C19.0444 32.1685 18.7657 32.0218 18.492 31.8719C18.3817 31.8122 18.2714 31.7495 18.1612 31.6908C18.0509 31.632 17.9436 31.5652 17.8363 31.5025C17.6228 31.377 17.4083 31.2474 17.1978 31.1158C17.0975 31.0483 16.9939 30.9808 16.887 30.9133C16.8389 30.8789 16.7867 30.8435 16.7356 30.8121C16.6845 30.7807 16.6353 30.7423 16.5842 30.7109C16.3556 30.5581 16.1351 30.4012 15.9145 30.2432C15.8143 30.1734 15.7211 30.1036 15.6278 30.0337C15.5105 29.9497 15.3932 29.8596 15.279 29.7685C15.0514 29.5944 14.8308 29.4162 14.6123 29.2351C14.502 29.145 14.3947 29.0539 14.2875 28.9597C14.2283 28.9142 14.1702 28.8585 14.1181 28.813C14.1047 28.8034 14.0919 28.7929 14.08 28.7816C13.714 28.4607 13.3551 28.1257 13.0133 27.7876C12.8549 27.6347 12.6995 27.4768 12.5431 27.3169C12.4258 27.1914 12.3085 27.0699 12.1912 26.9434C12.1501 26.9019 12.108 26.8563 12.0699 26.8108C11.9286 26.6579 11.7902 26.5071 11.6559 26.3472C11.5175 26.1906 11.3839 26.0337 11.2549 25.8765C11.2444 25.8645 11.235 25.8517 11.2268 25.838C11.0855 25.674 10.9501 25.507 10.8188 25.34C10.7115 25.2033 10.6083 25.0677 10.505 24.9351C10.4558 24.8771 10.4097 24.8167 10.3667 24.7539C10.2664 24.6284 10.1732 24.5029 10.084 24.3743C10.0599 24.3399 10.0389 24.3085 10.0148 24.2731C9.8975 24.1121 9.78322 23.9522 9.67294 23.7882C9.66706 23.782 9.66231 23.7748 9.65891 23.767C9.55865 23.6303 9.46943 23.4916 9.37519 23.3489C9.31604 23.2619 9.2579 23.1748 9.20276 23.0837C9.10251 22.9369 9.00928 22.7871 8.91604 22.6343C8.82281 22.4814 8.71554 22.3205 8.62231 22.1606C8.52908 22.0006 8.43284 21.8427 8.33961 21.6828C8.30452 21.617 8.26642 21.5502 8.22833 21.4803L8.01981 21.123C7.66793 20.4853 7.3401 19.8395 7.03534 19.1947C6.97653 19.0759 6.92139 18.9575 6.86993 18.8394C6.39374 17.811 5.9787 16.7826 5.60878 15.7602C5.56367 15.6347 5.51855 15.5122 5.47444 15.3867C5.32607 14.9646 5.18772 14.5465 5.0564 14.1315C5.00427 13.9675 4.95614 13.8035 4.90502 13.6396C4.74963 13.1446 4.61129 12.6526 4.47996 12.1678C4.43886 12.0149 4.40076 11.8641 4.35965 11.7082C4.33158 11.5959 4.30051 11.4845 4.27344 11.3701C4.23936 11.2274 4.20126 11.0837 4.17319 10.945C4.11805 10.7152 4.06592 10.4915 4.0178 10.2719C3.97269 10.0876 3.93459 9.90948 3.8975 9.72829C3.86041 9.5471 3.82131 9.37603 3.78722 9.19788C3.75314 9.01972 3.71505 8.84865 3.68698 8.6786C3.65891 8.50854 3.62181 8.33647 3.58673 8.16641C3.55164 7.99636 3.52457 7.82832 3.4965 7.66029C3.48948 7.63904 3.48948 7.6117 3.48246 7.58741C3.40326 7.11672 3.33109 6.66021 3.26893 6.21685C3.24788 6.064 3.22782 5.91318 3.20677 5.76033C3.16166 5.44249 3.12357 5.1287 3.08948 4.82908C3.07545 4.70761 3.06141 4.58513 3.04838 4.46974C2.98923 3.92212 2.94111 3.41296 2.90302 2.95139C2.90302 2.88559 2.89299 2.81877 2.88898 2.74893C2.87495 2.58899 2.86492 2.43513 2.85489 2.28836C2.85489 2.18713 2.84487 2.08592 2.83785 1.9847C2.82081 1.6952 2.80677 1.43 2.79675 1.19313C2.79675 1.11317 2.78973 1.04029 2.78973 0.970441C2.77569 0.545302 2.77269 0.244659 2.76868 0.0877629C2.94813 0.0735916 3.32106 0.0493076 3.86041 0.0280507C3.9396 0.0280507 4.02282 0.0209612 4.10201 0.0209612C4.7757 -0.00333242 5.66292 -0.0104181 6.70853 0.0209612C6.97119 0.0209612 7.24387 0.0351346 7.52758 0.0452569L7.95564 0.0665099C8.24537 0.0806812 8.54913 0.0978912 8.8579 0.119148C10.094 0.203164 11.4644 0.338793 12.916 0.558448C13.0992 0.582742 13.2823 0.610755 13.4654 0.642472C13.8353 0.702194 14.2073 0.767982 14.5842 0.837826C14.7737 0.873254 14.9642 0.90768 15.1536 0.946145C16.0409 1.12734 16.9531 1.33585 17.8714 1.58082C18.0098 1.61523 18.1441 1.65066 18.2795 1.69216C18.7426 1.81768 19.2118 1.95736 19.683 2.10414C19.8103 2.14564 19.9386 2.18815 20.0659 2.23269C20.8048 2.46955 21.5436 2.73882 22.2825 3.03439C22.6835 3.19837 23.0845 3.36944 23.4855 3.54051C23.8584 3.70753 24.2343 3.88162 24.6043 4.06281C24.9742 4.244 25.3401 4.43633 25.707 4.63473C25.8073 4.68736 25.9075 4.74304 26.0078 4.79871C28.2687 6.03581 30.3414 7.59512 32.1622 9.42866C32.3446 9.6139 32.5241 9.80219 32.7045 9.9935C32.885 10.1848 33.0564 10.3842 33.2298 10.5826C33.316 10.6838 33.4023 10.7851 33.4885 10.8863C33.6579 11.0887 33.8273 11.3013 33.9897 11.5108C34.0729 11.6121 34.1551 11.7234 34.2384 11.8317C34.3216 11.94 34.3807 12.02 34.4559 12.1172C34.6694 12.4107 34.8769 12.7063 35.0845 13.01C35.1536 13.1112 35.2188 13.2124 35.285 13.3197C35.3511 13.427 35.4203 13.5221 35.4855 13.6335C35.5506 13.7448 35.6198 13.843 35.686 13.9473C35.8795 14.2682 36.0689 14.5921 36.2524 14.9271C36.4358 15.2622 36.6153 15.6043 36.7837 15.9525C36.8489 16.0851 36.911 16.2147 36.9772 16.3463C37.0223 16.4475 37.0704 16.5558 37.1186 16.6601C37.1667 16.7643 37.2258 16.901 37.281 17.0224C37.3361 17.1439 37.3812 17.2634 37.4363 17.3889C37.5366 17.6328 37.6368 17.8839 37.7371 18.1349C37.7822 18.2604 37.8303 18.3859 37.8754 18.5114C37.693 18.1592 30.2674 4.26424 8.43585 5.23396C8.42655 5.2324 8.41707 5.2324 8.40778 5.23396H8.38872Z" fill="#BBBBBB"/>
<path d="M32.6183 42.052C32.6183 42.052 32.6184 42.06 32.6104 42.065L32.6183 42.052Z" fill="#BBBBBB"/>
<path d="M44.6417 44.2229L34.0207 33.4499L34.5527 33.5829L34.5907 43.7859H32.7477V29.6309H32.8427L43.3497 40.4419L42.9127 40.3469L42.8747 30.0489H44.6987V44.2229H44.6417ZM47.2811 43.7859L53.2851 29.4789H53.3991L59.3841 43.7859H57.2751L52.7911 32.3669L54.1021 31.5119L49.0861 43.7859H47.2811ZM50.7961 38.5799H55.9071L56.5151 40.1759H50.2641L50.7961 38.5799ZM59.8882 30.0489H69.0082V31.8159H65.3222V43.7859H63.4792V31.8159H59.8882V30.0489ZM73.5882 38.9219C73.5882 39.5426 73.7339 40.0999 74.0252 40.5939C74.3292 41.0752 74.7282 41.4552 75.2222 41.7339C75.7162 42.0126 76.2736 42.1519 76.8942 42.1519C77.5402 42.1519 78.1166 42.0126 78.6232 41.7339C79.1299 41.4552 79.5289 41.0752 79.8202 40.5939C80.1116 40.0999 80.2572 39.5426 80.2572 38.9219V30.0489H82.0622V38.9789C82.0622 39.9796 81.8279 40.8536 81.3592 41.6009C80.9032 42.3482 80.2826 42.9246 79.4972 43.3299C78.7246 43.7352 77.8569 43.9379 76.8942 43.9379C75.9316 43.9379 75.0639 43.7352 74.2912 43.3299C73.5186 42.9246 72.9042 42.3482 72.4482 41.6009C71.9922 40.8536 71.7642 39.9796 71.7642 38.9789V30.0489H73.5882V38.9219ZM89.4807 30.0489C90.1774 30.0489 90.817 30.1439 91.3997 30.3339C91.995 30.5112 92.508 30.7836 92.9387 31.1509C93.382 31.5056 93.724 31.9489 93.9647 32.4809C94.218 33.0002 94.3447 33.6082 94.3447 34.3049C94.3447 34.8496 94.2624 35.3816 94.0977 35.9009C93.9457 36.4202 93.686 36.8952 93.3187 37.3259C92.9514 37.7439 92.47 38.0859 91.8747 38.3519C91.292 38.6052 90.57 38.7319 89.7087 38.7319H87.6757V43.7859H85.8327V30.0489H89.4807ZM89.6707 36.9649C90.2154 36.9649 90.665 36.8826 91.0197 36.7179C91.387 36.5532 91.672 36.3442 91.8747 36.0909C92.0774 35.8249 92.223 35.5399 92.3117 35.2359C92.4004 34.9319 92.4447 34.6469 92.4447 34.3809C92.4447 34.1022 92.394 33.8172 92.2927 33.5259C92.204 33.2219 92.052 32.9432 91.8367 32.6899C91.634 32.4366 91.3617 32.2276 91.0197 32.0629C90.6904 31.8982 90.285 31.8159 89.8037 31.8159H87.6757V36.9649H89.6707ZM91.9317 38.0099L95.5227 43.7859H93.3947L89.7467 38.0669L91.9317 38.0099ZM96.9891 43.7859L102.993 29.4789H103.107L109.092 43.7859H106.983L102.499 32.3669L103.81 31.5119L98.7941 43.7859H96.9891ZM100.504 38.5799H105.615L106.223 40.1759H99.9721L100.504 38.5799ZM111.679 30.0489H113.522V42.0189H120.495V43.7859H111.679V30.0489Z" fill="#BBBBBB"/>
<path d="M43.1637 54.7423H43.8147V56.0303H44.6127V56.5413H43.8147V58.9143H43.1637V56.5413H42.6317V56.0303H43.1637V54.7423ZM46.6033 58.9843C46.3326 58.9843 46.0853 58.926 45.8613 58.8093C45.6419 58.6926 45.4669 58.5223 45.3363 58.2983C45.2103 58.0696 45.1473 57.792 45.1473 57.4653C45.1473 57.1433 45.2149 56.8656 45.3503 56.6323C45.4856 56.3943 45.6653 56.2123 45.8893 56.0863C46.1179 55.9603 46.3676 55.8973 46.6383 55.8973C46.9089 55.8973 47.1376 55.9603 47.3243 56.0863C47.5109 56.2076 47.6533 56.3523 47.7513 56.5203L47.7093 56.6323L47.7723 56.0163H48.3743V58.9143H47.7233V58.1583L47.7933 58.3263C47.7746 58.373 47.7326 58.4336 47.6673 58.5083C47.6066 58.5783 47.5226 58.6506 47.4153 58.7253C47.3126 58.8 47.1936 58.863 47.0583 58.9143C46.9229 58.961 46.7713 58.9843 46.6033 58.9843ZM46.7783 58.4453C46.9416 58.4453 47.0886 58.415 47.2193 58.3543C47.3499 58.2936 47.4573 58.2096 47.5413 58.1023C47.6299 57.9903 47.6906 57.8573 47.7233 57.7033V57.1363C47.6859 56.9963 47.6206 56.875 47.5273 56.7723C47.4339 56.665 47.3219 56.5833 47.1913 56.5273C47.0606 56.4666 46.9159 56.4363 46.7573 56.4363C46.5846 56.4363 46.4259 56.4783 46.2813 56.5623C46.1366 56.6463 46.0199 56.763 45.9313 56.9123C45.8473 57.0616 45.8053 57.2366 45.8053 57.4373C45.8053 57.624 45.8496 57.7943 45.9383 57.9483C46.0269 58.1023 46.1459 58.2236 46.2953 58.3123C46.4446 58.401 46.6056 58.4453 46.7783 58.4453ZM49.5008 58.9143V53.4963H50.1518V58.9143H49.5008ZM50.8518 56.9893L52.1818 58.9143H51.4188L50.4178 57.3533L50.8518 56.9893ZM49.9488 57.9903L49.8858 57.3673L51.6428 55.9533L52.0418 56.2963L49.9488 57.9903ZM54.2218 58.9843C53.8905 58.9843 53.6058 58.919 53.3678 58.7883C53.1298 58.653 52.9455 58.471 52.8148 58.2423C52.6888 58.009 52.6258 57.743 52.6258 57.4443C52.6258 57.1596 52.6981 56.9006 52.8428 56.6673C52.9875 56.434 53.1811 56.2473 53.4238 56.1073C53.6665 55.9673 53.9371 55.8973 54.2358 55.8973C54.6185 55.8973 54.9358 56.0093 55.1878 56.2333C55.4398 56.4573 55.6101 56.7653 55.6988 57.1573L53.3118 57.9973L53.1578 57.6123L55.1178 56.8983L54.9778 56.9893C54.9218 56.8353 54.8285 56.7023 54.6978 56.5903C54.5671 56.4736 54.3968 56.4153 54.1868 56.4153C54.0095 56.4153 53.8508 56.4596 53.7108 56.5483C53.5708 56.6323 53.4611 56.749 53.3818 56.8983C53.3025 57.0476 53.2628 57.218 53.2628 57.4093C53.2628 57.61 53.3048 57.7873 53.3888 57.9413C53.4728 58.0906 53.5871 58.2096 53.7318 58.2983C53.8811 58.3823 54.0491 58.4243 54.2358 58.4243C54.3618 58.4243 54.4831 58.401 54.5998 58.3543C54.7211 58.3076 54.8331 58.247 54.9358 58.1723L55.2368 58.6553C55.0921 58.7533 54.9288 58.8326 54.7468 58.8933C54.5695 58.954 54.3945 58.9843 54.2218 58.9843ZM61.0814 58.6483C60.9507 58.751 60.7944 58.8326 60.6124 58.8933C60.4304 58.954 60.2484 58.9843 60.0664 58.9843C59.749 58.9843 59.4714 58.9213 59.2334 58.7953C58.9954 58.6693 58.8087 58.4943 58.6734 58.2703C58.5427 58.0416 58.4774 57.7733 58.4774 57.4653C58.4774 57.1573 58.5474 56.889 58.6874 56.6603C58.832 56.4316 59.0187 56.2566 59.2474 56.1353C59.4807 56.0093 59.7304 55.9463 59.9964 55.9463C60.2297 55.9463 60.4374 55.979 60.6194 56.0443C60.806 56.1096 60.9647 56.1983 61.0954 56.3103L60.7734 56.7303C60.6894 56.665 60.5867 56.6066 60.4654 56.5553C60.344 56.504 60.2064 56.4783 60.0524 56.4783C59.8844 56.4783 59.728 56.5226 59.5834 56.6113C59.4434 56.6953 59.3314 56.812 59.2474 56.9613C59.168 57.1106 59.1284 57.2786 59.1284 57.4653C59.1284 57.6426 59.1704 57.8083 59.2544 57.9623C59.3384 58.1116 59.455 58.2306 59.6044 58.3193C59.7537 58.4033 59.924 58.4453 60.1154 58.4453C60.2414 58.4453 60.3557 58.4266 60.4584 58.3893C60.5657 58.352 60.6614 58.3006 60.7454 58.2353L61.0814 58.6483ZM63.1257 58.9843C62.8551 58.9843 62.6077 58.926 62.3837 58.8093C62.1644 58.6926 61.9894 58.5223 61.8587 58.2983C61.7327 58.0696 61.6697 57.792 61.6697 57.4653C61.6697 57.1433 61.7374 56.8656 61.8727 56.6323C62.0081 56.3943 62.1877 56.2123 62.4117 56.0863C62.6404 55.9603 62.8901 55.8973 63.1607 55.8973C63.4314 55.8973 63.6601 55.9603 63.8467 56.0863C64.0334 56.2076 64.1757 56.3523 64.2737 56.5203L64.2317 56.6323L64.2947 56.0163H64.8967V58.9143H64.2457V58.1583L64.3157 58.3263C64.2971 58.373 64.2551 58.4336 64.1897 58.5083C64.1291 58.5783 64.0451 58.6506 63.9377 58.7253C63.8351 58.8 63.7161 58.863 63.5807 58.9143C63.4454 58.961 63.2937 58.9843 63.1257 58.9843ZM63.3007 58.4453C63.4641 58.4453 63.6111 58.415 63.7417 58.3543C63.8724 58.2936 63.9797 58.2096 64.0637 58.1023C64.1524 57.9903 64.2131 57.8573 64.2457 57.7033V57.1363C64.2084 56.9963 64.1431 56.875 64.0497 56.7723C63.9564 56.665 63.8444 56.5833 63.7137 56.5273C63.5831 56.4666 63.4384 56.4363 63.2797 56.4363C63.1071 56.4363 62.9484 56.4783 62.8037 56.5623C62.6591 56.6463 62.5424 56.763 62.4537 56.9123C62.3697 57.0616 62.3277 57.2366 62.3277 57.4373C62.3277 57.624 62.3721 57.7943 62.4607 57.9483C62.5494 58.1023 62.6684 58.2236 62.8177 58.3123C62.9671 58.401 63.1281 58.4453 63.3007 58.4453ZM66.6043 56.0163L66.6673 56.8563L66.6323 56.7443C66.707 56.567 66.8143 56.4176 66.9543 56.2963C67.099 56.1703 67.2483 56.0746 67.4023 56.0093C67.561 55.9393 67.6986 55.9043 67.8153 55.9043L67.7803 56.5483C67.561 56.5343 67.3673 56.5763 67.1993 56.6743C67.036 56.7723 66.9053 56.903 66.8073 57.0663C66.714 57.2296 66.6673 57.4046 66.6673 57.5913V58.9143H66.0233V56.0163H66.6043ZM69.8761 58.9843C69.5448 58.9843 69.2601 58.919 69.0221 58.7883C68.7841 58.653 68.5998 58.471 68.4691 58.2423C68.3431 58.009 68.2801 57.743 68.2801 57.4443C68.2801 57.1596 68.3524 56.9006 68.4971 56.6673C68.6418 56.434 68.8354 56.2473 69.0781 56.1073C69.3208 55.9673 69.5914 55.8973 69.8901 55.8973C70.2728 55.8973 70.5901 56.0093 70.8421 56.2333C71.0941 56.4573 71.2644 56.7653 71.3531 57.1573L68.9661 57.9973L68.8121 57.6123L70.7721 56.8983L70.6321 56.9893C70.5761 56.8353 70.4828 56.7023 70.3521 56.5903C70.2214 56.4736 70.0511 56.4153 69.8411 56.4153C69.6638 56.4153 69.5051 56.4596 69.3651 56.5483C69.2251 56.6323 69.1154 56.749 69.0361 56.8983C68.9568 57.0476 68.9171 57.218 68.9171 57.4093C68.9171 57.61 68.9591 57.7873 69.0431 57.9413C69.1271 58.0906 69.2414 58.2096 69.3861 58.2983C69.5354 58.3823 69.7034 58.4243 69.8901 58.4243C70.0161 58.4243 70.1374 58.401 70.2541 58.3543C70.3754 58.3076 70.4874 58.247 70.5901 58.1723L70.8911 58.6553C70.7464 58.7533 70.5831 58.8326 70.4011 58.8933C70.2238 58.954 70.0488 58.9843 69.8761 58.9843ZM74.1317 57.4373C74.1317 57.148 74.1993 56.8866 74.3347 56.6533C74.4747 56.42 74.666 56.2356 74.9087 56.1003C75.1513 55.965 75.4267 55.8973 75.7347 55.8973C76.052 55.8973 76.3297 55.965 76.5677 56.1003C76.8057 56.2356 76.99 56.42 77.1207 56.6533C77.2513 56.8866 77.3167 57.148 77.3167 57.4373C77.3167 57.7266 77.2513 57.9903 77.1207 58.2283C76.99 58.4616 76.8033 58.646 76.5607 58.7813C76.3227 58.9166 76.045 58.9843 75.7277 58.9843C75.4197 58.9843 75.1443 58.9213 74.9017 58.7953C74.6637 58.6646 74.4747 58.485 74.3347 58.2563C74.1993 58.023 74.1317 57.75 74.1317 57.4373ZM74.7827 57.4443C74.7827 57.631 74.8247 57.8013 74.9087 57.9553C74.9927 58.1046 75.1047 58.2236 75.2447 58.3123C75.3893 58.401 75.548 58.4453 75.7207 58.4453C75.9027 58.4453 76.0637 58.401 76.2037 58.3123C76.3483 58.2236 76.4603 58.1046 76.5397 57.9553C76.619 57.8013 76.6587 57.631 76.6587 57.4443C76.6587 57.2576 76.619 57.0896 76.5397 56.9403C76.4603 56.7863 76.3483 56.665 76.2037 56.5763C76.0637 56.483 75.9027 56.4363 75.7207 56.4363C75.5433 56.4363 75.3823 56.483 75.2377 56.5763C75.0977 56.6696 74.9857 56.7933 74.9017 56.9473C74.8223 57.0966 74.7827 57.2623 74.7827 57.4443ZM78.4361 58.9143V56.5973H77.9391V56.0163H78.4361V54.7913C78.4361 54.3713 78.5294 54.0493 78.7161 53.8253C78.9074 53.6013 79.1874 53.4893 79.5561 53.4893C79.6541 53.4893 79.7614 53.5033 79.8781 53.5313C79.9994 53.5593 80.1044 53.606 80.1931 53.6713L79.9201 54.1403C79.8781 54.0983 79.8314 54.0703 79.7801 54.0563C79.7288 54.0376 79.6774 54.0283 79.6261 54.0283C79.4534 54.0283 79.3204 54.0866 79.2271 54.2033C79.1338 54.32 79.0871 54.5183 79.0871 54.7983V56.0163H80.0041V56.5973H79.0871V58.9143H78.4361ZM83.3103 60.3073L85.2213 56.0163H85.8233L83.9543 60.3073H83.3103ZM84.0243 58.9353L82.6313 56.0163H83.3663L84.5353 58.6063L84.0243 58.9353ZM86.1834 57.4373C86.1834 57.148 86.2511 56.8866 86.3864 56.6533C86.5264 56.42 86.7177 56.2356 86.9604 56.1003C87.2031 55.965 87.4784 55.8973 87.7864 55.8973C88.1037 55.8973 88.3814 55.965 88.6194 56.1003C88.8574 56.2356 89.0417 56.42 89.1724 56.6533C89.3031 56.8866 89.3684 57.148 89.3684 57.4373C89.3684 57.7266 89.3031 57.9903 89.1724 58.2283C89.0417 58.4616 88.8551 58.646 88.6124 58.7813C88.3744 58.9166 88.0967 58.9843 87.7794 58.9843C87.4714 58.9843 87.1961 58.9213 86.9534 58.7953C86.7154 58.6646 86.5264 58.485 86.3864 58.2563C86.2511 58.023 86.1834 57.75 86.1834 57.4373ZM86.8344 57.4443C86.8344 57.631 86.8764 57.8013 86.9604 57.9553C87.0444 58.1046 87.1564 58.2236 87.2964 58.3123C87.4411 58.401 87.5997 58.4453 87.7724 58.4453C87.9544 58.4453 88.1154 58.401 88.2554 58.3123C88.4001 58.2236 88.5121 58.1046 88.5914 57.9553C88.6707 57.8013 88.7104 57.631 88.7104 57.4443C88.7104 57.2576 88.6707 57.0896 88.5914 56.9403C88.5121 56.7863 88.4001 56.665 88.2554 56.5763C88.1154 56.483 87.9544 56.4363 87.7724 56.4363C87.5951 56.4363 87.4341 56.483 87.2894 56.5763C87.1494 56.6696 87.0374 56.7933 86.9534 56.9473C86.8741 57.0966 86.8344 57.2623 86.8344 57.4443ZM91.1669 59.0263C90.9055 59.0263 90.6885 58.947 90.5159 58.7883C90.3479 58.625 90.2592 58.415 90.2499 58.1583V56.0163H90.9009V57.9273C90.9102 58.086 90.9545 58.2143 91.0339 58.3123C91.1179 58.4103 91.2485 58.4616 91.4259 58.4663C91.5892 58.4663 91.7339 58.4196 91.8599 58.3263C91.9905 58.2283 92.0955 58.0976 92.1749 57.9343C92.2542 57.7663 92.2939 57.5773 92.2939 57.3673V56.0163H92.9449V58.9143H92.3499L92.2939 58.2003L92.3289 58.3263C92.2729 58.4616 92.1865 58.583 92.0699 58.6903C91.9579 58.793 91.8249 58.8746 91.6709 58.9353C91.5169 58.996 91.3489 59.0263 91.1669 59.0263ZM94.6522 56.0163L94.7152 56.8563L94.6802 56.7443C94.7548 56.567 94.8622 56.4176 95.0022 56.2963C95.1468 56.1703 95.2962 56.0746 95.4502 56.0093C95.6088 55.9393 95.7465 55.9043 95.8632 55.9043L95.8282 56.5483C95.6088 56.5343 95.4152 56.5763 95.2472 56.6743C95.0838 56.7723 94.9532 56.903 94.8552 57.0663C94.7618 57.2296 94.7152 57.4046 94.7152 57.5913V58.9143H94.0712V56.0163H94.6522ZM97.515 58.9703C97.3097 58.9703 97.109 58.9353 96.913 58.8653C96.7217 58.7906 96.563 58.681 96.437 58.5363L96.71 58.1583C96.8313 58.275 96.955 58.3636 97.081 58.4243C97.2117 58.4803 97.34 58.5083 97.466 58.5083C97.5593 58.5083 97.6457 58.4966 97.725 58.4733C97.8043 58.45 97.8673 58.4126 97.914 58.3613C97.9653 58.3053 97.991 58.2306 97.991 58.1373C97.991 58.0346 97.956 57.953 97.886 57.8923C97.8207 57.8316 97.7343 57.7826 97.627 57.7453C97.5243 57.708 97.4147 57.673 97.298 57.6403C97.06 57.561 96.878 57.4513 96.752 57.3113C96.626 57.1713 96.563 57.001 96.563 56.8003C96.563 56.6463 96.6003 56.504 96.675 56.3733C96.7543 56.238 96.8687 56.1283 97.018 56.0443C97.172 55.9603 97.361 55.9183 97.585 55.9183C97.7857 55.9183 97.9653 55.944 98.124 55.9953C98.2827 56.042 98.432 56.1213 98.572 56.2333L98.313 56.6393C98.229 56.5506 98.1287 56.4853 98.012 56.4433C97.8953 56.4013 97.7903 56.378 97.697 56.3733C97.6177 56.3686 97.5407 56.3803 97.466 56.4083C97.396 56.4363 97.3377 56.476 97.291 56.5273C97.2443 56.5786 97.221 56.6393 97.221 56.7093C97.221 56.8073 97.2537 56.8866 97.319 56.9473C97.3843 57.008 97.4683 57.057 97.571 57.0943C97.6783 57.127 97.7833 57.162 97.886 57.1993C98.0307 57.2413 98.159 57.2973 98.271 57.3673C98.383 57.4373 98.4717 57.5236 98.537 57.6263C98.607 57.729 98.642 57.8573 98.642 58.0113C98.642 58.184 98.6 58.345 98.516 58.4943C98.4367 58.639 98.313 58.7556 98.145 58.8443C97.9817 58.9283 97.7717 58.9703 97.515 58.9703ZM100.898 58.9843C100.566 58.9843 100.282 58.919 100.044 58.7883C99.8056 58.653 99.6212 58.471 99.4906 58.2423C99.3646 58.009 99.3016 57.743 99.3016 57.4443C99.3016 57.1596 99.3739 56.9006 99.5186 56.6673C99.6632 56.434 99.8569 56.2473 100.1 56.1073C100.342 55.9673 100.613 55.8973 100.912 55.8973C101.294 55.8973 101.612 56.0093 101.864 56.2333C102.116 56.4573 102.286 56.7653 102.375 57.1573L99.9876 57.9973L99.8336 57.6123L101.794 56.8983L101.654 56.9893C101.598 56.8353 101.504 56.7023 101.374 56.5903C101.243 56.4736 101.073 56.4153 100.863 56.4153C100.685 56.4153 100.527 56.4596 100.387 56.5483C100.247 56.6323 100.137 56.749 100.058 56.8983C99.9782 57.0476 99.9386 57.218 99.9386 57.4093C99.9386 57.61 99.9806 57.7873 100.065 57.9413C100.149 58.0906 100.263 58.2096 100.408 58.2983C100.557 58.3823 100.725 58.4243 100.912 58.4243C101.038 58.4243 101.159 58.401 101.276 58.3543C101.397 58.3076 101.509 58.247 101.612 58.1723L101.913 58.6553C101.768 58.7533 101.605 58.8326 101.423 58.8933C101.245 58.954 101.07 58.9843 100.898 58.9843ZM103.19 53.4963H103.841V58.9143H103.19V53.4963ZM105.206 58.9143V56.5973H104.709V56.0163H105.206V54.7913C105.206 54.3713 105.299 54.0493 105.486 53.8253C105.677 53.6013 105.957 53.4893 106.326 53.4893C106.424 53.4893 106.531 53.5033 106.648 53.5313C106.769 53.5593 106.874 53.606 106.963 53.6713L106.69 54.1403C106.648 54.0983 106.601 54.0703 106.55 54.0563C106.498 54.0376 106.447 54.0283 106.396 54.0283C106.223 54.0283 106.09 54.0866 105.997 54.2033C105.903 54.32 105.857 54.5183 105.857 54.7983V56.0163H106.774V56.5973H105.857V58.9143H105.206Z" fill="#BBBBBB"/>
</svg>
